<mxfile host="app.diagrams.net" modified="2024-07-20T16:29:32.736Z" agent="Mozilla/5.0 (Windows NT 10.0; Win64; x64) AppleWebKit/537.36 (KHTML, like Gecko) Chrome/126.0.0.0 Safari/537.36 Edg/126.0.0.0" etag="49RRweaxedsuCtQ3OAH4" version="24.7.2" type="device">
  <diagram name="Page-1" id="IoiMsFStNUBIv5oyecL9">
    <mxGraphModel dx="1160" dy="509" grid="1" gridSize="10" guides="1" tooltips="1" connect="1" arrows="1" fold="1" page="1" pageScale="1" pageWidth="850" pageHeight="1100" math="0" shadow="0">
      <root>
        <mxCell id="0" />
        <mxCell id="1" parent="0" />
        <mxCell id="TKaKY2AgA76MHdjqcOLS-3" value="" style="edgeStyle=orthogonalEdgeStyle;rounded=0;orthogonalLoop=1;jettySize=auto;html=1;" parent="1" source="TKaKY2AgA76MHdjqcOLS-1" target="TKaKY2AgA76MHdjqcOLS-2" edge="1">
          <mxGeometry relative="1" as="geometry" />
        </mxCell>
        <mxCell id="TKaKY2AgA76MHdjqcOLS-1" value="start" style="ellipse;whiteSpace=wrap;html=1;" parent="1" vertex="1">
          <mxGeometry x="365" y="100" width="120" height="80" as="geometry" />
        </mxCell>
        <mxCell id="TKaKY2AgA76MHdjqcOLS-5" value="" style="edgeStyle=orthogonalEdgeStyle;rounded=0;orthogonalLoop=1;jettySize=auto;html=1;" parent="1" source="TKaKY2AgA76MHdjqcOLS-2" target="TKaKY2AgA76MHdjqcOLS-4" edge="1">
          <mxGeometry relative="1" as="geometry" />
        </mxCell>
        <mxCell id="TKaKY2AgA76MHdjqcOLS-2" value="A = 0&lt;div&gt;Q = multiplier&lt;/div&gt;&lt;div&gt;Q-1 = 0&lt;/div&gt;&lt;div&gt;M = multiplicand&lt;/div&gt;&lt;div&gt;count = n&lt;/div&gt;" style="whiteSpace=wrap;html=1;" parent="1" vertex="1">
          <mxGeometry x="365" y="240" width="120" height="80" as="geometry" />
        </mxCell>
        <mxCell id="TKaKY2AgA76MHdjqcOLS-13" value="" style="edgeStyle=orthogonalEdgeStyle;rounded=0;orthogonalLoop=1;jettySize=auto;html=1;" parent="1" source="TKaKY2AgA76MHdjqcOLS-4" target="TKaKY2AgA76MHdjqcOLS-12" edge="1">
          <mxGeometry relative="1" as="geometry" />
        </mxCell>
        <mxCell id="TKaKY2AgA76MHdjqcOLS-33" value="True" style="edgeLabel;html=1;align=center;verticalAlign=middle;resizable=0;points=[];" parent="TKaKY2AgA76MHdjqcOLS-13" vertex="1" connectable="0">
          <mxGeometry x="-0.4815" y="2" relative="1" as="geometry">
            <mxPoint as="offset" />
          </mxGeometry>
        </mxCell>
        <mxCell id="TKaKY2AgA76MHdjqcOLS-32" value="" style="edgeStyle=orthogonalEdgeStyle;rounded=0;orthogonalLoop=1;jettySize=auto;html=1;" parent="1" source="TKaKY2AgA76MHdjqcOLS-4" target="TKaKY2AgA76MHdjqcOLS-31" edge="1">
          <mxGeometry relative="1" as="geometry">
            <Array as="points">
              <mxPoint x="550" y="425" />
              <mxPoint x="550" y="425" />
            </Array>
          </mxGeometry>
        </mxCell>
        <mxCell id="TKaKY2AgA76MHdjqcOLS-34" value="False" style="edgeLabel;html=1;align=center;verticalAlign=middle;resizable=0;points=[];" parent="TKaKY2AgA76MHdjqcOLS-32" vertex="1" connectable="0">
          <mxGeometry x="-0.1152" y="1" relative="1" as="geometry">
            <mxPoint as="offset" />
          </mxGeometry>
        </mxCell>
        <mxCell id="TKaKY2AgA76MHdjqcOLS-4" value="Q0Q-1 = 00 or 11" style="rhombus;whiteSpace=wrap;html=1;" parent="1" vertex="1">
          <mxGeometry x="380" y="370" width="90" height="110" as="geometry" />
        </mxCell>
        <mxCell id="1jB4-zuI55iPDnr3NQ70-5" style="edgeStyle=orthogonalEdgeStyle;rounded=0;orthogonalLoop=1;jettySize=auto;html=1;exitX=0.5;exitY=1;exitDx=0;exitDy=0;entryX=0.5;entryY=0;entryDx=0;entryDy=0;" edge="1" parent="1" source="TKaKY2AgA76MHdjqcOLS-12" target="1jB4-zuI55iPDnr3NQ70-4">
          <mxGeometry relative="1" as="geometry" />
        </mxCell>
        <mxCell id="TKaKY2AgA76MHdjqcOLS-12" value="shift right arithmetic&lt;div&gt;AQQ-1&lt;/div&gt;" style="whiteSpace=wrap;html=1;" parent="1" vertex="1">
          <mxGeometry x="365" y="570" width="120" height="60" as="geometry" />
        </mxCell>
        <mxCell id="TKaKY2AgA76MHdjqcOLS-22" value="" style="edgeStyle=orthogonalEdgeStyle;rounded=0;orthogonalLoop=1;jettySize=auto;html=1;" parent="1" source="TKaKY2AgA76MHdjqcOLS-19" target="TKaKY2AgA76MHdjqcOLS-21" edge="1">
          <mxGeometry relative="1" as="geometry" />
        </mxCell>
        <mxCell id="TKaKY2AgA76MHdjqcOLS-23" value="True" style="edgeLabel;html=1;align=center;verticalAlign=middle;resizable=0;points=[];" parent="TKaKY2AgA76MHdjqcOLS-22" vertex="1" connectable="0">
          <mxGeometry x="-0.4778" y="-1" relative="1" as="geometry">
            <mxPoint as="offset" />
          </mxGeometry>
        </mxCell>
        <mxCell id="TKaKY2AgA76MHdjqcOLS-26" value="" style="edgeStyle=orthogonalEdgeStyle;rounded=0;orthogonalLoop=1;jettySize=auto;html=1;entryX=0.5;entryY=0;entryDx=0;entryDy=0;exitX=0;exitY=0.5;exitDx=0;exitDy=0;" parent="1" source="TKaKY2AgA76MHdjqcOLS-19" target="TKaKY2AgA76MHdjqcOLS-4" edge="1">
          <mxGeometry relative="1" as="geometry">
            <mxPoint x="354.0000000000001" y="730.0000000000001" as="sourcePoint" />
            <mxPoint x="410" y="360" as="targetPoint" />
            <Array as="points">
              <mxPoint x="130" y="840" />
              <mxPoint x="130" y="370" />
            </Array>
          </mxGeometry>
        </mxCell>
        <mxCell id="TKaKY2AgA76MHdjqcOLS-27" value="False" style="edgeLabel;html=1;align=center;verticalAlign=middle;resizable=0;points=[];" parent="TKaKY2AgA76MHdjqcOLS-26" vertex="1" connectable="0">
          <mxGeometry x="-0.2222" y="1" relative="1" as="geometry">
            <mxPoint as="offset" />
          </mxGeometry>
        </mxCell>
        <mxCell id="TKaKY2AgA76MHdjqcOLS-19" value="count = 0" style="rhombus;whiteSpace=wrap;html=1;" parent="1" vertex="1">
          <mxGeometry x="385" y="800" width="80" height="80" as="geometry" />
        </mxCell>
        <mxCell id="TKaKY2AgA76MHdjqcOLS-21" value="End" style="whiteSpace=wrap;html=1;" parent="1" vertex="1">
          <mxGeometry x="540" y="810" width="120" height="60" as="geometry" />
        </mxCell>
        <mxCell id="TKaKY2AgA76MHdjqcOLS-36" value="" style="edgeStyle=orthogonalEdgeStyle;rounded=0;orthogonalLoop=1;jettySize=auto;html=1;" parent="1" source="TKaKY2AgA76MHdjqcOLS-31" edge="1">
          <mxGeometry relative="1" as="geometry">
            <mxPoint x="770" y="500" as="targetPoint" />
          </mxGeometry>
        </mxCell>
        <mxCell id="TKaKY2AgA76MHdjqcOLS-39" value="True" style="edgeLabel;html=1;align=center;verticalAlign=middle;resizable=0;points=[];" parent="TKaKY2AgA76MHdjqcOLS-36" vertex="1" connectable="0">
          <mxGeometry x="-0.3111" y="1" relative="1" as="geometry">
            <mxPoint as="offset" />
          </mxGeometry>
        </mxCell>
        <mxCell id="TKaKY2AgA76MHdjqcOLS-38" value="" style="edgeStyle=orthogonalEdgeStyle;rounded=0;orthogonalLoop=1;jettySize=auto;html=1;" parent="1" source="TKaKY2AgA76MHdjqcOLS-31" edge="1">
          <mxGeometry relative="1" as="geometry">
            <mxPoint x="620" y="500" as="targetPoint" />
          </mxGeometry>
        </mxCell>
        <mxCell id="TKaKY2AgA76MHdjqcOLS-40" value="False" style="edgeLabel;html=1;align=center;verticalAlign=middle;resizable=0;points=[];" parent="TKaKY2AgA76MHdjqcOLS-38" vertex="1" connectable="0">
          <mxGeometry x="-0.3037" y="-1" relative="1" as="geometry">
            <mxPoint as="offset" />
          </mxGeometry>
        </mxCell>
        <mxCell id="TKaKY2AgA76MHdjqcOLS-31" value="Q0Q-1 = 10" style="rhombus;whiteSpace=wrap;html=1;" parent="1" vertex="1">
          <mxGeometry x="580" y="385" width="80" height="80" as="geometry" />
        </mxCell>
        <mxCell id="TKaKY2AgA76MHdjqcOLS-42" style="edgeStyle=orthogonalEdgeStyle;rounded=0;orthogonalLoop=1;jettySize=auto;html=1;exitX=0.5;exitY=1;exitDx=0;exitDy=0;entryX=1;entryY=0.5;entryDx=0;entryDy=0;" parent="1" target="TKaKY2AgA76MHdjqcOLS-12" edge="1">
          <mxGeometry relative="1" as="geometry">
            <mxPoint x="620" y="600" as="targetPoint" />
            <Array as="points">
              <mxPoint x="770" y="600" />
            </Array>
            <mxPoint x="770" y="560" as="sourcePoint" />
          </mxGeometry>
        </mxCell>
        <mxCell id="TKaKY2AgA76MHdjqcOLS-41" style="edgeStyle=orthogonalEdgeStyle;rounded=0;orthogonalLoop=1;jettySize=auto;html=1;exitX=0.5;exitY=1;exitDx=0;exitDy=0;entryX=1;entryY=0.5;entryDx=0;entryDy=0;" parent="1" source="1jB4-zuI55iPDnr3NQ70-1" target="TKaKY2AgA76MHdjqcOLS-12" edge="1">
          <mxGeometry relative="1" as="geometry">
            <mxPoint x="620" y="560" as="sourcePoint" />
          </mxGeometry>
        </mxCell>
        <mxCell id="1jB4-zuI55iPDnr3NQ70-2" value="A &amp;lt;= A - M" style="ellipse;whiteSpace=wrap;html=1;" vertex="1" parent="1">
          <mxGeometry x="710" y="500" width="120" height="80" as="geometry" />
        </mxCell>
        <mxCell id="1jB4-zuI55iPDnr3NQ70-1" value="A &amp;lt;= A + M" style="ellipse;whiteSpace=wrap;html=1;" vertex="1" parent="1">
          <mxGeometry x="560" y="490" width="120" height="80" as="geometry" />
        </mxCell>
        <mxCell id="1jB4-zuI55iPDnr3NQ70-6" style="edgeStyle=orthogonalEdgeStyle;rounded=0;orthogonalLoop=1;jettySize=auto;html=1;exitX=0.5;exitY=1;exitDx=0;exitDy=0;entryX=0.5;entryY=0;entryDx=0;entryDy=0;" edge="1" parent="1" source="1jB4-zuI55iPDnr3NQ70-4" target="TKaKY2AgA76MHdjqcOLS-19">
          <mxGeometry relative="1" as="geometry" />
        </mxCell>
        <mxCell id="1jB4-zuI55iPDnr3NQ70-4" value="count &amp;lt;= count - 1" style="ellipse;whiteSpace=wrap;html=1;" vertex="1" parent="1">
          <mxGeometry x="365" y="680" width="120" height="80" as="geometry" />
        </mxCell>
      </root>
    </mxGraphModel>
  </diagram>
</mxfile>
